<?xml version="1.0" standalone="no"?>
<!DOCTYPE svg PUBLIC "-//W3C//DTD SVG 20010904//EN"
 "http://www.w3.org/TR/2001/REC-SVG-20010904/DTD/svg10.dtd">
<svg version="1.0" xmlns="http://www.w3.org/2000/svg"
 width="128.000000pt" height="129.000000pt" viewBox="0 0 128.000000 129.000000"
 preserveAspectRatio="xMidYMid meet">

<g transform="translate(0.000000,129.000000) scale(0.100000,-0.100000)"
fill="#000000" stroke="none">
<path d="M629 1156 c-3 -3 -43 -7 -90 -10 l-84 -4 -3 -46 -3 -46 -59 0 -58 0
-19 -52 c-20 -59 -21 -128 -6 -549 8 -222 9 -227 35 -267 17 -25 45 -48 75
-63 44 -22 59 -24 198 -23 211 1 277 25 323 114 22 42 23 53 19 185 -13 363
-33 586 -57 651 -9 22 -15 24 -78 24 l-68 0 -10 43 -9 42 -50 3 c-28 2 -53 1
-56 -2z m87 -51 c4 -14 5 -28 3 -30 -8 -7 -215 -9 -226 -2 -7 5 -13 14 -13 22
0 9 20 15 68 20 37 3 74 8 82 9 8 2 30 4 47 5 27 1 34 -3 39 -24z m164 -102
c10 -36 15 -91 40 -448 25 -364 7 -403 -203 -427 -178 -20 -301 6 -351 75 -19
25 -22 50 -28 235 -15 395 -14 504 3 542 l15 35 125 11 c68 6 183 12 256 13
l132 1 11 -37z"/>
<path d="M570 990 l-205 -5 3 -374 c3 -410 4 -417 62 -441 26 -11 66 -10 232
3 111 9 207 22 212 27 24 25 0 756 -26 787 -6 7 -25 12 -42 11 -17 -1 -123 -5
-236 -8z m267 -195 c14 -188 21 -560 12 -569 -3 -4 -64 -11 -135 -16 -71 -5
-158 -12 -194 -16 -56 -5 -68 -4 -90 14 -24 20 -24 21 -29 238 -3 121 -6 284
-6 364 l0 145 200 5 c110 3 207 6 215 5 12 0 17 -32 27 -170z"/>
<path d="M523 623 c-114 -5 -118 -8 -108 -103 10 -102 10 -102 227 -94 l176 7
6 51 c9 78 7 121 -6 134 -12 12 -68 13 -295 5z m267 -92 l0 -68 -157 -6 c-113
-4 -161 -2 -170 6 -6 7 -13 37 -15 67 l-3 55 125 5 c69 3 146 7 173 8 l47 2 0
-69z"/>
<path d="M545 413 c-130 -5 -125 -1 -125 -87 0 -69 2 -76 26 -95 33 -26 87
-27 259 -6 66 8 123 15 128 15 4 0 7 32 7 70 0 57 -4 74 -20 90 -21 21 -38 22
-275 13z m255 -65 c0 -18 3 -43 6 -55 7 -24 18 -21 -191 -44 -141 -15 -152
-11 -157 65 l-3 55 40 4 c22 2 100 4 173 5 l132 2 0 -32z"/>
</g>
</svg>
